<?xml version="1.0" encoding="UTF-8" standalone="no"?>
<svg
   xmlns:dc="http://purl.org/dc/elements/1.1/"
   xmlns:cc="http://creativecommons.org/ns#"
   xmlns:rdf="http://www.w3.org/1999/02/22-rdf-syntax-ns#"
   xmlns:svg="http://www.w3.org/2000/svg"
   xmlns="http://www.w3.org/2000/svg"
   id="svg7"
   style="fill-rule:evenodd;clip-rule:evenodd;stroke-linejoin:round;stroke-miterlimit:1.41421;"
   xml:space="preserve"
   version="1.1"
   viewBox="0 0 39 39"
   height="100%"
   width="100%"><metadata
     id="metadata13"><rdf:RDF><cc:Work
         rdf:about=""><dc:format>image/svg+xml</dc:format><dc:type
           rdf:resource="http://purl.org/dc/dcmitype/StillImage" /><dc:title></dc:title></cc:Work></rdf:RDF></metadata><defs
     id="defs11" /><g
     id="Layer1"><path
       id="path2"
       style="fill:rgb(172,172,172);"
       d="M26,24L26,36L13,36L13,24L0,24L0,12L13,12L13,0L26,0L26,12L39,12L39,24L26,24Z" /><path
       id="path4"
       style="fill:rgb(79,79,79);"
       d="M26,36L13,36L13,39L26,39L26,36ZM13,24L3.55271e-15,24L3.55271e-15,27L13,27L13,24ZM39,24L26,24L26,27L39,27L39,24Z" /></g><path
     id="path822"
     d="m 9.2129237,22.061441 c -0.1652542,-0.165254 -7.31867,-4.225436 -7.31867,-4.225436 l 7.3122604,-4.221736 z"
     style="fill:#4f4f4f;fill-opacity:1;stroke:none;stroke-width:1px;stroke-linecap:butt;stroke-linejoin:miter;stroke-opacity:1" /></svg>